<svg xmlns="http://www.w3.org/2000/svg" width="85.505" height="68.587" viewBox="0 0 85.505 68.587">
  <g id="Group_12619" data-name="Group 12619" transform="translate(12496.957 -4566)">
    <path id="Path_51011" data-name="Path 51011" d="M183.523,157.335l-10.49.839-8.189-19.443a4.128,4.128,0,0,0-3.524-2.1H122.93a4.047,4.047,0,0,0-3.524,2.1l-7.083,19.442-11.034-.839a2.578,2.578,0,0,0-1.714,2.477v4.1a21.464,21.464,0,0,0,2.572,2.572l4.071,1.054c.381,0,2.139.31,2.139.692l-1.524,19.947a7.135,7.135,0,0,0,7.144,7.144.716.716,0,0,0,.476-.1c.191,0,.381.1.571.1,3.334-.1,5.144-2.286,5.811-5.334a6.136,6.136,0,0,0,.286-1.905v-1.144a1.505,1.505,0,0,1,1.524-1.524h38.866a1.505,1.505,0,0,1,1.524,1.524v1.714a6.5,6.5,0,0,0,6.1,6.573h.571c.191,0,.286.1.476.1a7.135,7.135,0,0,0,7.144-7.144v-.857l-.528-19.781c0-.381-.381,0,0,0l5.678-1.054c1.407-.746,2.572-1.143,2.572-2.572v-4.1a2.212,2.212,0,0,0-1.524-2.477Zm-64.4,1.973,6.287-14.289a.781.781,0,0,1,.571-.381h32.293a.522.522,0,0,1,.571.381l6.287,14.289a.7.7,0,0,1-.571,1.048H119.787a.74.74,0,0,1-.666-1.047Zm8.383,16a2.358,2.358,0,0,1-2.381,2.381h-7.716a2.358,2.358,0,0,1-2.381-2.381v-3.62a2.354,2.354,0,0,1,3.049-2.286l7.716,2.191a2.344,2.344,0,0,1,1.714,2.286Zm41.914,0a2.358,2.358,0,0,1-2.382,2.381H159.32a2.358,2.358,0,0,1-2.381-2.381v-1.429a2.461,2.461,0,0,1,1.714-2.286l7.716-2.191a2.4,2.4,0,0,1,3.049,2.286Z" transform="translate(-12596.531 4439.271)" fill="#24a360"/>
    <path id="Path_51012" data-name="Path 51012" d="M307.019,78.971a1.416,1.416,0,0,0-1.239-.571h-9.335a1.537,1.537,0,0,0-1.239.571L291.3,84.59c-.571.762.1,1.714,1.239,1.714h17.147c1.048,0,1.714-.953,1.239-1.714Z" transform="translate(-12755.471 4487.602)" fill="#24a360"/>
  </g>
</svg>
