<svg xmlns="http://www.w3.org/2000/svg" width="68.586" height="68.586" viewBox="0 0 68.586 68.586">
  <path id="Path_51419" data-name="Path 51419" d="M233.093,128.8a34.293,34.293,0,1,0,34.293,34.293A34.294,34.294,0,0,0,233.093,128.8Zm0,12.7a2.54,2.54,0,0,1,2.54,2.54v17.583l13.018,7.541a2.528,2.528,0,0,1,.952,3.454,2.561,2.561,0,0,1-3.492.913c-4.756-2.748-9.552-5.521-14.289-8.255a2.515,2.515,0,0,1-1.271-2.183V144.041a2.54,2.54,0,0,1,2.54-2.54Z" transform="translate(-198.8 -128.8)" fill="#24a360"/>
</svg>
