<svg xmlns="http://www.w3.org/2000/svg" width="49.677" height="68.586" viewBox="0 0 49.677 68.586">
  <g id="Group_12626" data-name="Group 12626" opacity="0.9">
    <path id="Path_26" data-name="Path 26" d="M210.1,75.359,195.551,68.5,181,75.359v10.3h29.1Z" transform="translate(-170.721 -68.5)" fill="#24a360"/>
    <path id="Path_27" data-name="Path 27" d="M195.551,194.717c8.032,0,14.551-6.145,14.551-13.717H181C181,188.572,187.519,194.717,195.551,194.717Z" transform="translate(-170.721 -160.424)" fill="#24a360"/>
    <path id="Path_28" data-name="Path 28" d="M188.809,274.5h-21.4a14.676,14.676,0,0,0-7.609,2.14l43.276,26.008V288.217C203.076,280.645,196.684,274.5,188.809,274.5Zm6.068,11.3v1.427h-1.484l-1.046,1.006L191.3,287.23h-1.484V285.8l-1.046-1.006,1.046-1.006v-1.427H191.3l1.046-1.006,1.046,1.006h1.484v1.427l1.046,1.006Z" transform="translate(-153.399 -236.823)" fill="#24a360"/>
    <path id="Path_29" data-name="Path 29" d="M124.8,320.738V337.93h39.487L126.464,314.3A13.7,13.7,0,0,0,124.8,320.738Z" transform="translate(-124.8 -269.344)" fill="#24a360"/>
  </g>
</svg>
