<svg xmlns="http://www.w3.org/2000/svg" xmlns:xlink="http://www.w3.org/1999/xlink" width="73" height="79" viewBox="0 0 73 79">
  <defs>
    <clipPath id="clip-path">
      <rect id="Rectangle_3347" data-name="Rectangle 3347" width="73" height="79" transform="translate(3747 5554)" fill="#3aac70"/>
    </clipPath>
  </defs>
  <g id="Mask_Group_392" data-name="Mask Group 392" transform="translate(-3747 -5554)" opacity="0.9" clip-path="url(#clip-path)">
    <path id="Path_51420" data-name="Path 51420" d="M235.876,62.575a6.328,6.328,0,0,0,1.631.218h1.134c2.348,10.591,9.155,18.25,17.188,18.25,7.21,0,13.421-6.187,16.318-15.115a13.23,13.23,0,0,0,3.318-3.288c.069-.014.137-.021.2-.035a5.676,5.676,0,0,0,4.448-5.415v-4.4a5.675,5.675,0,0,0-4.448-5.414V46.7c0-10.306-8.927-18.691-19.9-18.691S235.876,36.389,235.876,46.7V47.4a5.669,5.669,0,0,0-4.331,5.388v4.4a5.666,5.666,0,0,0,4.331,5.385Zm19.893-30.669c7.987,0,14.586,5.619,15.595,12.866a17.69,17.69,0,0,0-31.228.271c.879-7.379,7.552-13.136,15.633-13.136ZM242.631,59.4s-1.795-10.656,2-12.151a30.787,30.787,0,0,0,11.2,2.7,30.814,30.814,0,0,0,11.205-2.7c3.788,1.5,1.991,12.15,1.991,12.151a7.654,7.654,0,0,1,2.489-1.171v.255a32.419,32.419,0,0,1-.537,3.451c-2.474,2.239-6.726,3.85-11.605,4.15a2.567,2.567,0,0,0-1.668-.622h-3.45a2.6,2.6,0,1,0,0,5.2h3.45a2.581,2.581,0,0,0,1.8-.731,26.742,26.742,0,0,0,9.651-2.275c-2.822,6.385-7.733,10.617-13.324,10.617-8.036,0-14.676-8.729-15.72-20.051a7.651,7.651,0,0,1,2.522,1.181Z" transform="translate(3527.245 5533.376)" fill="#3aac70"/>
    <path id="Path_51421" data-name="Path 51421" d="M204.758,297.942h-4.136A23.744,23.744,0,0,0,179.2,276.82c-.094,4.327-6.508,7.821-14.409,7.821s-14.316-3.495-14.409-7.821a23.744,23.744,0,0,0-21.419,21.122H124.83a7.806,7.806,0,0,0-7.8,7.8v15.6a7.806,7.806,0,0,0,7.8,7.8h79.929a7.806,7.806,0,0,0,7.8-7.8V305.741a7.805,7.805,0,0,0-7.8-7.8Zm-78.012,13.942,2.876-.418a1.771,1.771,0,0,0,1.186-.862l.731-1.478.557-1.128c.2-.408.532-.408.733,0l1.286,2.607a1.791,1.791,0,0,0,1.188.862l2.877.418c.451.066.551.38.225.7l-.082.079-2,1.948a1.773,1.773,0,0,0-.453,1.4l.492,2.865c.077.449-.191.644-.593.429l-2.574-1.351a1.753,1.753,0,0,0-1.465,0l-2.574,1.351c-.4.215-.67.019-.593-.429l.492-2.865a1.768,1.768,0,0,0-.453-1.4l-2.081-2.028c-.326-.318-.227-.633.225-.7ZM184.368,316l.492,2.865c.077.449-.191.644-.593.429l-2.574-1.351a1.75,1.75,0,0,0-1.464,0l-2.574,1.351c-.4.215-.672.019-.595-.429l.492-2.865a1.768,1.768,0,0,0-.452-1.4l-1.1-1.071-.983-.958c-.325-.317-.225-.633.226-.7l2.877-.418a1.775,1.775,0,0,0,1.186-.862l1.287-2.607c.2-.408.532-.408.733,0l1.286,2.607a1.791,1.791,0,0,0,1.188.862l2.878.418c.45.066.55.38.224.7l-.787.767-1.294,1.262a1.767,1.767,0,0,0-.454,1.4ZM168.2,316l.492,2.865c.076.449-.191.644-.593.429l-2.574-1.351a1.752,1.752,0,0,0-1.465,0l-2.574,1.351c-.4.215-.67.019-.593-.429l.492-2.865a1.765,1.765,0,0,0-.453-1.4l-1.1-1.071-.982-.958c-.325-.317-.225-.633.226-.7l2.877-.418a1.77,1.77,0,0,0,1.184-.862l1.288-2.607c.2-.408.532-.408.733,0l1.286,2.607a1.791,1.791,0,0,0,1.188.862l2.877.418c.451.066.551.38.225.7l-.983.958-1.1,1.071a1.765,1.765,0,0,0-.456,1.4Zm-16.165,0,.492,2.865c.077.449-.191.644-.593.429l-2.574-1.351a1.75,1.75,0,0,0-1.464,0l-2.574,1.351c-.4.215-.672.019-.595-.429L145.22,316a1.768,1.768,0,0,0-.452-1.4l-1.295-1.262-.787-.767c-.324-.317-.224-.633.226-.7l2.877-.418a1.775,1.775,0,0,0,1.186-.862l1.288-2.608c.2-.408.53-.408.733,0l1.286,2.608a1.791,1.791,0,0,0,1.187.862l2.878.418c.451.066.551.38.224.7l-.982.958-1.1,1.071a1.766,1.766,0,0,0-.453,1.4Zm51.032-3.423-2.081,2.028a1.767,1.767,0,0,0-.453,1.4l.492,2.865c.076.449-.191.644-.593.429l-2.574-1.351a1.752,1.752,0,0,0-1.465,0L193.82,319.3c-.4.215-.67.019-.595-.429l.492-2.865a1.768,1.768,0,0,0-.453-1.4l-2-1.948-.082-.079c-.323-.317-.224-.633.226-.7l2.877-.418a1.771,1.771,0,0,0,1.186-.862L196.76,308c.2-.408.532-.408.733,0l.556,1.126.73,1.48a1.791,1.791,0,0,0,1.188.862l2.877.418c.449.065.55.38.224.7Z" transform="translate(3618.282 5335.568)" fill="#3aac70"/>
  </g>
</svg>
